<svg xmlns="http://www.w3.org/2000/svg" xmlns:svg="http://www.w3.org/2000/svg" id="svg2" width="1052.362" height="744.094" version="1.1"><defs id="defs4"><marker id="Arrow1Lend" orient="auto" refX="0" refY="0" style="overflow:visible"><path id="path3878" d="M 0.0,0.0 L 5.0,-5.0 L -12.5,0.0 L 5.0,5.0 L 0.0,0.0 z" transform="scale(0.8) rotate(180) translate(12.5,0)" style="fill-rule:evenodd;stroke:#000;stroke-width:1pt;marker-start:none"/></marker><marker id="Arrow1Lstart" orient="auto" refX="0" refY="0" style="overflow:visible"><path id="path3875" d="M 0.0,0.0 L 5.0,-5.0 L -12.5,0.0 L 5.0,5.0 L 0.0,0.0 z" transform="scale(0.8) translate(12.5,0)" style="fill-rule:evenodd;stroke:#000;stroke-width:1pt;marker-start:none"/></marker><clipPath id="clipPath3442" clipPathUnits="userSpaceOnUse"><rect style="fill:#000;fill-opacity:1;stroke:none" id="rect3444" width="20.614" height="12.484" x="171.998" y="239.12"/></clipPath></defs><metadata id="metadata7"/><g id="layer1" transform="translate(0,-308.2677)"><path style="fill:none;stroke:#000;stroke-width:2.5;stroke-linecap:butt;stroke-linejoin:miter;stroke-miterlimit:4;stroke-opacity:1;stroke-dasharray:none;marker-start:url(#Arrow1Lstart);marker-end:url(#Arrow1Lend)" id="path4528" d="m 62,313.36218 0,589 927,0"/><path style="fill:none;stroke:gray;stroke-width:1px;stroke-linecap:butt;stroke-linejoin:miter;stroke-opacity:1" id="path5082" d="m 62,442.36218 880,0"/><path style="fill:none;stroke:gray;stroke-width:1px;stroke-linecap:butt;stroke-linejoin:miter;stroke-opacity:1" id="path5082-4" d="m 64,766.36218 878,0"/><path style="fill:none;stroke:gray;stroke-width:1px;stroke-linecap:butt;stroke-linejoin:miter;stroke-opacity:1" id="path5082-4-4" d="m 62,615.36218 880,0"/><path style="fill:none;stroke:gray;stroke-width:1px;stroke-linecap:butt;stroke-linejoin:miter;stroke-opacity:1" id="path5082-4-4-9" d="m 61,503.36218 881,0"/><path style="fill:none;stroke:#d40000;stroke-width:6.5;stroke-linecap:butt;stroke-linejoin:miter;stroke-miterlimit:4;stroke-opacity:1;stroke-dasharray:none" id="path5168" d="m 74,847.36218 c 0,0 59.53937,-39.58131 93,-51 34.49024,-11.77005 108,-17 108,-17"/><path style="fill:none;stroke:#000;stroke-width:1.5;stroke-linecap:butt;stroke-linejoin:miter;stroke-miterlimit:4;stroke-opacity:1;stroke-dasharray:none" id="path5170" d="m 750,891.36218 0,23"/><path style="fill:none;stroke:#000;stroke-width:1.5;stroke-linecap:butt;stroke-linejoin:miter;stroke-miterlimit:4;stroke-opacity:1;stroke-dasharray:none" id="path5170-2" d="m 550,889.86218 0,23"/><path style="fill:none;stroke:#000;stroke-width:1.5;stroke-linecap:butt;stroke-linejoin:miter;stroke-miterlimit:4;stroke-opacity:1;stroke-dasharray:none" id="path5170-2-4" d="m 160,891.86218 0,23"/><path style="fill:none;stroke:#000;stroke-width:1.5;stroke-linecap:butt;stroke-linejoin:miter;stroke-miterlimit:4;stroke-opacity:1;stroke-dasharray:none" id="path5170-2-4-4" d="m 347,889.86218 0,23"/><path style="fill:none;stroke:#d40000;stroke-width:6.5;stroke-linecap:butt;stroke-linejoin:miter;stroke-miterlimit:4;stroke-opacity:1;stroke-dasharray:none" id="path5168-8" d="m 118,835.86218 c 0,0 88.0744,-86.98401 136,-126 29.99904,-24.42207 54.35606,-51.52254 94.49685,-67.36295 C 391.54159,625.51286 445,628.86218 445,628.86218"/><path style="fill:green;stroke:green;stroke-width:2.5;stroke-miterlimit:4;stroke-opacity:1;stroke-dasharray:none;stroke-dashoffset:0" id="path5283" d="m 820,540.09448 c 0,3.866 -3.13401,7 -7,7 -3.86599,0 -7,-3.134 -7,-7 0,-3.86599 3.13401,-7 7,-7 3.86599,0 7,3.13401 7,7 z" transform="translate(-63,237.2677)"/><path style="fill:none;stroke:green;stroke-width:6.5;stroke-linecap:butt;stroke-linejoin:miter;stroke-miterlimit:4;stroke-opacity:1;stroke-dasharray:none" id="path5166-3" d="m 648.01129,677.92506 47.05856,-27.73544 54.91886,-17.30053"/><path style="fill:none;stroke:green;stroke-width:6.5;stroke-linecap:butt;stroke-linejoin:miter;stroke-miterlimit:4;stroke-opacity:1;stroke-dasharray:none" id="path5168-8-7" d="m 62.5,892.86218 c 0,0 119.29034,-92.17939 179.96277,-106.80834 30.80215,-21.04194 83.07681,-87.3015 132.29694,-121.58986 C 426.16837,629.52021 548.5,626.86218 548.5,626.86218"/><path style="fill:none;stroke:#00f;stroke-width:6.5;stroke-linecap:butt;stroke-linejoin:miter;stroke-miterlimit:4;stroke-opacity:1;stroke-dasharray:none" id="path5166-3-5" d="m 446.01129,666.88017 c 0,0 84.11186,-67.2359 129.05856,-96.73544 26.60255,-17.45985 82.91886,-47.30053 82.91886,-47.30053"/><path style="fill:none;stroke:#00f;stroke-width:6.5;stroke-linecap:butt;stroke-linejoin:miter;stroke-miterlimit:4;stroke-opacity:1;stroke-dasharray:none" id="path5166-3-5-2" d="m 549.01129,554.88017 c 0,0 58.89827,-43.72363 92.05856,-58.73544 34.12182,-15.4471 107.91885,-31.30053 107.91885,-31.30053"/><text style="font-size:40px;font-style:normal;font-weight:400;line-height:125%;letter-spacing:0;word-spacing:0;fill:green;fill-opacity:1;stroke:green;font-family:Sans" id="text5346" x="694" y="686.362" xml:space="preserve"><tspan id="tspan5348" x="694" y="686.362" style="font-size:32px">G.722</tspan></text><text style="font-size:40px;font-style:normal;font-weight:400;line-height:125%;letter-spacing:0;word-spacing:0;fill:green;fill-opacity:1;stroke:green;font-family:Sans" id="text5350" x="563" y="398.362" xml:space="preserve"><tspan id="tspan5352" x="563" y="398.362">Opus</tspan></text><text style="font-size:40px;font-style:normal;font-weight:400;line-height:125%;letter-spacing:0;word-spacing:0;fill:green;fill-opacity:1;stroke:green;font-family:Sans" id="text5354" x="384" y="706.362" xml:space="preserve"><tspan id="tspan5356" x="384" y="706.362" style="font-size:32px">Speex</tspan></text><text style="font-size:40px;font-style:normal;font-weight:400;line-height:125%;letter-spacing:0;word-spacing:0;fill:#000;fill-opacity:1;stroke:none;font-family:Sans" id="text5358" x="376" y="621.362" xml:space="preserve"><tspan id="tspan5360" x="376" y="621.362" style="font-size:28px;fill:#d40000;stroke:#d40000">AMR-WB</tspan></text><text style="font-size:40px;font-style:normal;font-weight:400;line-height:125%;letter-spacing:0;word-spacing:0;fill:#d40000;fill-opacity:1;stroke:#d40000;font-family:Sans" id="text5358-4" x="283.063" y="775.026" xml:space="preserve"><tspan id="tspan5360-3" x="283.063" y="775.026" style="font-size:28px;fill:#d40000;stroke:#d40000">AMR-NB</tspan></text><text style="font-size:40px;font-style:normal;font-weight:400;line-height:125%;letter-spacing:0;word-spacing:0;fill:#00f;fill-opacity:1;stroke:#00f;font-family:Sans" id="text5346-0" x="692.648" y="508.011" xml:space="preserve"><tspan id="tspan5348-3" x="692.648" y="508.011" style="font-size:32px;fill:#00f;stroke:#00f">G.719</tspan></text><text style="font-size:40px;font-style:normal;font-weight:400;line-height:125%;letter-spacing:0;word-spacing:0;fill:#00f;fill-opacity:1;stroke:#00f;font-family:Sans" id="text5346-0-5" x="633.172" y="566.011" xml:space="preserve"><tspan id="tspan5348-3-2" x="633.172" y="566.011" style="font-size:32px;fill:#00f;stroke:#00f">G.722.1C</tspan></text><text style="font-size:40px;font-style:normal;font-weight:400;line-height:125%;letter-spacing:0;word-spacing:0;fill:green;fill-opacity:1;stroke:green;font-family:Sans" id="text5346-9" x="698.648" y="817.011" xml:space="preserve"><tspan id="tspan5348-4" x="698.648" y="817.011" style="font-size:32px">G.711</tspan></text><text style="font-size:40px;font-style:normal;font-weight:400;line-height:125%;letter-spacing:0;word-spacing:0;fill:#000;fill-opacity:1;stroke:none;font-family:Sans" id="text5446" x="328" y="981.362" xml:space="preserve"><tspan id="tspan5448" x="328" y="981.362" style="font-size:28px">bitrate (kb/s)</tspan></text><text style="font-size:40px;font-style:normal;font-weight:400;line-height:125%;letter-spacing:0;word-spacing:0;fill:#000;fill-opacity:1;stroke:none;font-family:Sans" id="text5446-3" x="150.774" y="942.153" xml:space="preserve"><tspan id="tspan5448-3" x="150.774" y="942.153" style="font-size:28px">8</tspan></text><text style="font-size:40px;font-style:normal;font-weight:400;line-height:125%;letter-spacing:0;word-spacing:0;fill:#000;fill-opacity:1;stroke:none;font-family:Sans" id="text5446-3-0" x="327.1" y="941.555" xml:space="preserve"><tspan id="tspan5448-3-0" x="327.1" y="941.555" style="font-size:28px">16</tspan></text><text style="font-size:40px;font-style:normal;font-weight:400;line-height:125%;letter-spacing:0;word-spacing:0;fill:#000;fill-opacity:1;stroke:none;font-family:Sans" id="text5446-3-0-6" x="531.522" y="940.555" xml:space="preserve"><tspan id="tspan5448-3-0-4" x="531.522" y="940.555" style="font-size:28px">32</tspan></text><text style="font-size:40px;font-style:normal;font-weight:400;line-height:125%;letter-spacing:0;word-spacing:0;fill:#000;fill-opacity:1;stroke:none;font-family:Sans" id="text5446-3-0-6-8" x="731.522" y="940.555" xml:space="preserve"><tspan id="tspan5448-3-0-4-2" x="731.522" y="940.555" style="font-size:28px">64</tspan></text><text style="font-size:40px;font-style:normal;font-weight:400;line-height:125%;letter-spacing:0;word-spacing:0;fill:#000;fill-opacity:1;stroke:none;font-family:Sans" id="text5546" x="-682.046" y="40.133" transform="matrix(0,-1,1,0,0,0)" xml:space="preserve"><tspan id="tspan5548" x="-682.046" y="40.133" style="font-size:28px">Quality</tspan></text><text style="font-size:40px;font-style:normal;font-weight:400;line-height:125%;letter-spacing:0;word-spacing:0;fill:#000;fill-opacity:1;stroke:none;font-family:Sans" id="text5550" x="70" y="761.362" xml:space="preserve"><tspan id="tspan5552" x="70" y="761.362" style="font-size:20px">narrowband</tspan></text><text style="font-size:40px;font-style:normal;font-weight:400;line-height:125%;letter-spacing:0;word-spacing:0;fill:#000;fill-opacity:1;stroke:none;font-family:Sans" id="text5550-9" x="72.195" y="609.818" xml:space="preserve"><tspan id="tspan5552-1" x="72.195" y="609.818" style="font-size:20px">wideband</tspan></text><text style="font-size:40px;font-style:normal;font-weight:400;line-height:125%;letter-spacing:0;word-spacing:0;fill:#000;fill-opacity:1;stroke:none;font-family:Sans" id="text5550-9-3" x="71.855" y="499.818" xml:space="preserve"><tspan id="tspan5552-1-6" x="71.855" y="499.818" style="font-size:20px">super-wideband</tspan></text><text style="font-size:40px;font-style:normal;font-weight:400;line-height:125%;letter-spacing:0;word-spacing:0;fill:#000;fill-opacity:1;stroke:none;font-family:Sans" id="text5550-9-3-6" x="73.55" y="438.88" xml:space="preserve"><tspan id="tspan5552-1-6-7" x="73.55" y="438.88" style="font-size:20px">fullband</tspan></text><path style="fill:green;stroke:green;stroke-width:2.5;stroke-miterlimit:4;stroke-opacity:1;stroke-dasharray:none;stroke-dashoffset:0" id="path5283-2" d="m 820,540.09448 c 0,3.866 -3.13401,7 -7,7 -3.86599,0 -7,-3.134 -7,-7 0,-3.86599 3.13401,-7 7,-7 3.86599,0 7,3.13401 7,7 z" transform="translate(-62,92.2677)"/><path style="fill:green;stroke:green;stroke-width:2.5;stroke-miterlimit:4;stroke-opacity:1;stroke-dasharray:none;stroke-dashoffset:0" id="path5283-2-0" d="m 820,540.09448 c 0,3.866 -3.13401,7 -7,7 -3.86599,0 -7,-3.134 -7,-7 0,-3.86599 3.13401,-7 7,-7 3.86599,0 7,3.13401 7,7 z" transform="translate(-114,108.2677)"/><path style="fill:green;stroke:green;stroke-width:2.5;stroke-miterlimit:4;stroke-opacity:1;stroke-dasharray:none;stroke-dashoffset:0" id="path5283-2-0-1" d="m 820,540.09448 c 0,3.866 -3.13401,7 -7,7 -3.86599,0 -7,-3.134 -7,-7 0,-3.86599 3.13401,-7 7,-7 3.86599,0 7,3.13401 7,7 z" transform="translate(-160,134.2677)"/><path style="fill:none;stroke:green;stroke-width:6.5;stroke-linecap:butt;stroke-linejoin:miter;stroke-miterlimit:4;stroke-opacity:1;stroke-dasharray:none" id="path5166-3-51" d="m 287.01129,791.88017 41.97742,-0.036"/><path style="fill:green;stroke:green;stroke-width:2.5;stroke-miterlimit:4;stroke-opacity:1;stroke-dasharray:none;stroke-dashoffset:0" id="path5283-8" d="m 820,540.09448 c 0,3.866 -3.13401,7 -7,7 -3.86599,0 -7,-3.134 -7,-7 0,-3.86599 3.13401,-7 7,-7 3.86599,0 7,3.13401 7,7 z" transform="translate(-484,251.2677)"/><path style="fill:green;stroke:green;stroke-width:2.5;stroke-miterlimit:4;stroke-opacity:1;stroke-dasharray:none;stroke-dashoffset:0" id="path5283-8-6" d="m 820,540.09448 c 0,3.866 -3.13401,7 -7,7 -3.86599,0 -7,-3.134 -7,-7 0,-3.86599 3.13401,-7 7,-7 3.86599,0 7,3.13401 7,7 z" transform="translate(-523,251.2677)"/><text style="font-size:40px;font-style:normal;font-weight:400;line-height:125%;letter-spacing:0;word-spacing:0;fill:green;fill-opacity:1;stroke:green;font-family:Sans" id="text5354-3" x="274.281" y="828.909" xml:space="preserve"><tspan id="tspan5356-0" x="274.281" y="828.909" style="font-size:32px">iLBC</tspan></text><path style="fill:green;stroke:green;stroke-width:2.5;stroke-miterlimit:4;stroke-opacity:1;stroke-dasharray:none;stroke-dashoffset:0" id="path5283-7" d="m 820,540.09448 c 0,3.866 -3.13401,7 -7,7 -3.86599,0 -7,-3.134 -7,-7 0,-3.86599 3.13401,-7 7,-7 3.86599,0 7,3.13401 7,7 z" transform="translate(-187.97852,432.88879)"/><text style="font-size:40px;font-style:normal;font-weight:400;line-height:125%;letter-spacing:0;word-spacing:0;fill:#000;fill-opacity:1;stroke:none;font-family:Sans" id="text5793" x="638.021" y="979.983" xml:space="preserve"><tspan id="tspan5795" x="638.021" y="979.983" style="font-size:24px">royalty-free, open-source</tspan></text><path style="fill:#00f;stroke:#00f;stroke-width:2.5;stroke-miterlimit:4;stroke-opacity:1;stroke-dasharray:none;stroke-dashoffset:0" id="path5283-7-6" d="m 820,540.09448 c 0,3.866 -3.13401,7 -7,7 -3.86599,0 -7,-3.134 -7,-7 0,-3.86599 3.13401,-7 7,-7 3.86599,0 7,3.13401 7,7 z" transform="translate(-188.97852,461.88879)"/><text style="font-size:40px;font-style:normal;font-weight:400;line-height:125%;letter-spacing:0;word-spacing:0;fill:#000;fill-opacity:1;stroke:none;font-family:Sans" id="text5793-6" x="637.021" y="1008.983" xml:space="preserve"><tspan id="tspan5795-8" x="637.021" y="1008.983" style="font-size:24px">free license, not open-source</tspan></text><path style="fill:#d40000;stroke:#d40000;stroke-width:2.5;stroke-miterlimit:4;stroke-opacity:1;stroke-dasharray:none;stroke-dashoffset:0" id="path5283-7-6-4" d="m 820,540.09448 c 0,3.866 -3.13401,7 -7,7 -3.86599,0 -7,-3.134 -7,-7 0,-3.86599 3.13401,-7 7,-7 3.86599,0 7,3.13401 7,7 z" transform="translate(-189.43945,490.88879)"/><text style="font-size:40px;font-style:normal;font-weight:400;line-height:125%;letter-spacing:0;word-spacing:0;fill:#000;fill-opacity:1;stroke:none;font-family:Sans" id="text5793-6-9" x="636.561" y="1037.983" xml:space="preserve"><tspan id="tspan5795-8-7" x="636.561" y="1037.983" style="font-size:24px">licensing fees, not open-source</tspan></text><path style="fill:none;stroke:gray;stroke-width:1px;stroke-linecap:butt;stroke-linejoin:miter;stroke-opacity:1" id="path5082-8" d="m 62,356.45105 881,0"/><text style="font-size:40px;font-style:normal;font-weight:400;line-height:125%;letter-spacing:0;word-spacing:0;fill:#000;fill-opacity:1;stroke:none;font-family:Sans" id="text5550-9-3-6-8" x="75.55" y="352.969" xml:space="preserve"><tspan id="tspan5552-1-6-7-4" x="75.55" y="352.969" style="font-size:20px">fullband stereo</tspan></text><path style="fill:none;stroke:#000;stroke-width:1.5;stroke-linecap:butt;stroke-linejoin:miter;stroke-miterlimit:4;stroke-opacity:1;stroke-dasharray:none" id="path5170-9" d="m 943.46484,891.94272 0,23"/><text style="font-size:40px;font-style:normal;font-weight:400;line-height:125%;letter-spacing:0;word-spacing:0;fill:#000;fill-opacity:1;stroke:none;font-family:Sans" id="text5446-3-0-6-8-1" x="914.987" y="943.135" xml:space="preserve"><tspan id="tspan5448-3-0-4-2-7" x="914.987" y="943.135" style="font-size:28px">128</tspan></text><path style="fill:none;stroke:green;stroke-width:6.5;stroke-linecap:butt;stroke-linejoin:miter;stroke-miterlimit:4;stroke-opacity:1;stroke-dasharray:none" id="path5166-3-5-2-0" d="m 699.0113,431.88017 c 0,0 51.42122,-21.62916 78.05855,-29.73544 54.3019,-16.52516 165.91885,-38.30053 165.91885,-38.30053"/><path style="fill:none;stroke:#d40000;stroke-width:6.5;stroke-linecap:butt;stroke-linejoin:miter;stroke-miterlimit:4;stroke-opacity:1;stroke-dasharray:none" id="path5166-3-5-2-0-8" d="m 622.0113,431.38017 c 0,0 76.83161,-24.55278 116.05855,-33.73544 C 804.97456,381.98295 940.9887,361.3442 940.9887,361.3442"/><text style="font-size:40px;font-style:normal;font-weight:400;line-height:125%;letter-spacing:0;word-spacing:0;fill:green;fill-opacity:1;stroke:green;font-family:Sans" id="text5346-8" x="687.648" y="459.011" xml:space="preserve"><tspan id="tspan5348-31" x="687.648" y="459.011" style="font-size:32px">Vorbis</tspan></text><text style="font-size:40px;font-style:normal;font-weight:400;line-height:125%;letter-spacing:0;word-spacing:0;fill:#000;fill-opacity:1;stroke:none;font-family:Sans" id="text5358-43" x="605.141" y="463.568" xml:space="preserve"><tspan style="font-size:32px;fill:#d40000;stroke:#d40000" id="tspan6046" x="605.141" y="463.568">AAC</tspan></text><path style="fill:none;stroke:green;stroke-width:6.5;stroke-linecap:butt;stroke-linejoin:miter;stroke-miterlimit:4;stroke-opacity:1;stroke-dasharray:none" id="path5166" d="m 114,866.36218 c 0,0 108.62763,-130.93334 171.41061,-187.90905 C 389.9905,583.54663 482.71885,483.48321 624.57504,424.55303 769.68324,364.2719 829.30569,368.35098 943,360.36218"/><path style="fill:none;stroke:green;stroke-width:6.5;stroke-linecap:butt;stroke-linejoin:miter;stroke-miterlimit:4;stroke-opacity:1;stroke-dasharray:none" id="path5166-3-5-2-0-8-5" d="m 771.0113,475.38017 c 0,0 71.82567,-66.35467 115.05855,-87.73544 17.32221,-8.56668 55.91885,-15.30053 55.91885,-15.30053"/><text style="font-size:40px;font-style:normal;font-weight:400;line-height:125%;letter-spacing:0;word-spacing:0;fill:#000;fill-opacity:1;stroke:none;font-family:Sans" id="text5358-7" x="858.141" y="435.568" xml:space="preserve"><tspan id="tspan5360-5" x="858.141" y="435.568" style="font-size:32px;fill:green;stroke:green">MP3</tspan></text></g></svg>